<svg width="75" height="77" viewBox="0 0 75 77" fill="none" xmlns="http://www.w3.org/2000/svg">
<g filter="url(#filter0_d_1_111)">
<path d="M43.75 6.25H12.5C10.8424 6.25 9.25268 6.90848 8.08058 8.08058C6.90848 9.25268 6.25 10.8424 6.25 12.5V43.75H12.5V12.5H43.75V6.25ZM56.25 18.75H25C23.3424 18.75 21.7527 19.4085 20.5806 20.5806C19.4085 21.7527 18.75 23.3424 18.75 25V56.25H25V25H56.25V18.75ZM62.5 31.25H37.5C35.8424 31.25 34.2527 31.9085 33.0806 33.0806C31.9085 34.2527 31.25 35.8424 31.25 37.5V62.5C31.25 64.1576 31.9085 65.7473 33.0806 66.9194C34.2527 68.0915 35.8424 68.75 37.5 68.75H62.5C65.9375 68.75 68.75 65.9375 68.75 62.5V37.5C68.75 34.0625 65.9375 31.25 62.5 31.25Z" fill="#00C4F0"/>
</g>
<defs>
<filter id="filter0_d_1_111" x="-4" y="0" width="83" height="83" filterUnits="userSpaceOnUse" color-interpolation-filters="sRGB">
<feFlood flood-opacity="0" result="BackgroundImageFix"/>
<feColorMatrix in="SourceAlpha" type="matrix" values="0 0 0 0 0 0 0 0 0 0 0 0 0 0 0 0 0 0 127 0" result="hardAlpha"/>
<feOffset dy="4"/>
<feGaussianBlur stdDeviation="2"/>
<feComposite in2="hardAlpha" operator="out"/>
<feColorMatrix type="matrix" values="0 0 0 0 0 0 0 0 0 0 0 0 0 0 0 0 0 0 0.25 0"/>
<feBlend mode="normal" in2="BackgroundImageFix" result="effect1_dropShadow_1_111"/>
<feBlend mode="normal" in="SourceGraphic" in2="effect1_dropShadow_1_111" result="shape"/>
</filter>
</defs>
</svg>
